<?xml version="1.0" encoding="UTF-8"?>
<svg id="LOGO" xmlns="http://www.w3.org/2000/svg" viewBox="0 0 1500 250">
  <path d="M1415.99,164.4c27.93-10.44,47.81-37.52,47.51-69.12-.39-40.19-33.74-72.28-73.93-72.28h-159.07c-3.31,0-6,2.69-6,6v192c0,3.31,2.69,6,6,6h34c3.31,0,6-2.69,6-6v-52h91.42l41.45,54.82c1.51,2,3.87,3.18,6.38,3.18h45.55c3.3,0,5.18-3.78,3.19-6.41l-42.5-56.19ZM1270.5,69h120c14.89,0,27,12.11,27,27s-12.11,27-27,27h-120v-54Z"/>
  <path d="M286.5,102h-132c-3.31,0-6,2.69-6,6v34c0,3.31,2.69,6,6,6h92v16.5c0,9.11-7.39,16.5-16.5,16.5h-119.5c-15.46,0-28-12.54-28-28v-56c0-15.46,12.54-28,28-28h167c3.31,0,6-2.69,6-6V29c0-3.31-2.69-6-6-6H110.5c-40.87,0-74,33.13-74,74v56c0,40.87,33.13,74,74,74h119.5c34.52,0,62.5-27.98,62.5-62.5v-56.5c0-3.31-2.69-6-6-6Z"/>
  <path d="M1112.5,23h-97c-40.87,0-74,33.13-74,74v124c0,3.31,2.69,6,6,6h34c3.31,0,6-2.69,6-6v-52h153v52c0,3.31,2.69,6,6,6h34c3.31,0,6-2.69,6-6v-124c0-40.87-33.13-74-74-74ZM987.5,123v-26c0-15.46,12.54-28,28-28h97c15.46,0,28,12.54,28,28v26h-153Z"/>
  <path d="M614,102h-115.29c-9,0-16.35-7.25-16.5-16.22-.15-9.23,7.71-16.78,16.93-16.78h150.36c3.31,0,6-2.69,6-6V29c0-3.31-2.69-6-6-6h-152.79c-34.79,0-63.02,28.57-62.49,63.47.52,34.29,29.14,61.53,63.44,61.53h115.35c9,0,16.35,7.25,16.5,16.22.15,9.23-7.71,16.78-16.93,16.78h-163.06c-3.31,0-6,2.69-6,6v34c0,3.31,2.69,6,6,6h163.55c34.3,0,62.92-27.24,63.44-61.53.53-34.91-27.71-63.47-62.49-63.47Z"/>
  <path d="M912.5,23h-216c-3.31,0-6,2.69-6,6v34c0,3.31,2.69,6,6,6h85v152c0,3.31,2.69,6,6,6h34c3.31,0,6-2.69,6-6V69h85c3.31,0,6-2.69,6-6V29c0-3.31-2.69-6-6-6Z"/>
  <rect x="334.5" y="102" width="63" height="46" rx="6" ry="6"/>
</svg>