<?xml version="1.0" encoding="UTF-8"?>
<svg id="Layer_1" data-name="Layer 1" xmlns="http://www.w3.org/2000/svg" viewBox="0 0 500 500">
  <path d="M22.07,182.59c42.57,30.43,74.01,76.25,85.71,129.05l24.98.03v-51.64c.01-19.24,15.59-34.79,34.8-34.79h281.83c19.25,0,34.84,15.55,34.84,34.79v148.81c0,19.21-15.59,34.79-34.84,34.79H188.31c-95.3,0-172.54-77.24-172.54-172.53v-42.18c0-15.86,2.27-31.73,6.29-46.33"/>
  <path d="M38.34,143.54c29.9-52.25,85.96-87.16,149.97-87.16h261.07c19.25,0,34.84,15.57,34.84,34.8v52.36H38.34Z"/>
</svg>